<svg width="76" height="62" fill="none" xmlns="http://www.w3.org/2000/svg"><path d="M56.786 28.26c-.385-.693-1.23-1.135-2.161-1.135h-9.5V1.937C45.125.869 44.061 0 42.75 0h-9.5c-1.311 0-2.375.868-2.375 1.938v25.187h-9.5c-.931 0-1.776.446-2.161 1.135-.39.694-.238 1.504.375 2.077l16.625 15.5c.451.423 1.102.663 1.786.663.684 0 1.335-.244 1.786-.663l16.625-15.5c.617-.57.76-1.383.375-2.077z" fill="#fff"/><path d="M64.125 42.625V54.25h-52.25V42.625h-9.5v15.5c0 2.143 2.128 3.875 4.75 3.875h61.75c2.627 0 4.75-1.732 4.75-3.875v-15.5h-9.5z" fill="#fff"/></svg>