<svg width="26" height="18" fill="none" xmlns="http://www.w3.org/2000/svg"><path d="M24.667 0H1.333C.6 0 0 .623 0 1.385v15.23C0 17.377.6 18 1.333 18h23.334C25.4 18 26 17.377 26 16.615V1.385C26 .623 25.4 0 24.667 0zm-.5 1.038l-10.4 8.1c-.187.148-.474.24-.767.24-.293 0-.58-.092-.767-.24l-10.4-8.1h22.333zM18.61 9.673l5.667 7.27.019.019H1.703c.006-.007.013-.012.019-.02l5.667-7.27a.533.533 0 00-.075-.73.487.487 0 00-.703.077L1 16.218V1.688l10.633 8.281c.4.31.886.445 1.367.447.48-.001.966-.137 1.367-.447L25 1.687v14.53L19.389 9.02a.487.487 0 00-.703-.076.533.533 0 00-.075.73z" fill="#687DA6"/></svg>